<svg width="43" height="44" viewBox="0 0 43 44" fill="none" xmlns="http://www.w3.org/2000/svg">
<rect x="6.22369" y="8.42102" width="31.1184" height="27.7237" fill="white"/>
<path d="M35.2958 1.39587H7.70415C3.94165 1.39587 0.895813 4.44171 0.895813 8.20421V35.7959C0.895813 39.5584 3.94165 42.6042 7.70415 42.6042H35.2958C39.0583 42.6042 42.1041 39.5584 42.1041 35.7959V8.20421C42.1041 4.44171 39.0583 1.39587 35.2958 1.39587ZM21.5 30.9584C20.9625 30.9584 20.2458 30.9584 19.5291 30.7792C17.9166 32.2125 15.9458 32.9292 14.1541 32.9292C13.6166 32.9292 13.0791 32.9292 12.7208 32.75L11.6458 32.2125L11.4666 32.0334C11.2875 31.8542 11.1083 31.4959 11.1083 31.3167C11.1083 30.9584 11.2875 30.7792 11.6458 30.6C12.5416 30.2417 13.0791 29.525 13.6166 28.6292C10.75 26.8375 8.95831 23.9709 8.95831 20.925C8.95831 15.3709 14.5125 10.8917 21.5 10.8917C28.4875 10.8917 34.0416 15.3709 34.0416 20.925C34.0416 26.4792 28.4875 30.9584 21.5 30.9584Z" fill="black"/>
</svg>
